<svg width="196" height="281" viewBox="0 0 196 281" fill="none" xmlns="http://www.w3.org/2000/svg">
<g filter="url(#filter0_d_18_2)">
<path d="M32.1604 258.878L28.9581 265.53C27.8853 267.758 28.8619 270.433 31.1184 271.446C33.3649 272.454 36.0014 271.42 36.9635 269.153L39.8481 262.357C40.7456 260.243 39.7871 257.799 37.6913 256.858C35.605 255.922 33.1524 256.817 32.1604 258.878Z" fill="white"/>
<path d="M32.1604 258.878L28.9581 265.53C27.8853 267.758 28.8619 270.433 31.1184 271.446C33.3649 272.454 36.0014 271.42 36.9635 269.153L39.8481 262.357C40.7456 260.243 39.7871 257.799 37.6913 256.858C35.605 255.922 33.1524 256.817 32.1604 258.878Z" stroke="black"/>
</g>
<g filter="url(#filter1_d_18_2)">
<path d="M157.16 269.405L153.958 262.753C152.885 260.524 153.862 257.85 156.118 256.837C158.365 255.829 161.001 256.863 161.964 259.129L164.848 265.925C165.746 268.04 164.787 270.484 162.691 271.424C160.605 272.361 158.152 271.465 157.16 269.405Z" fill="white"/>
<path d="M157.16 269.405L153.958 262.753C152.885 260.524 153.862 257.85 156.118 256.837C158.365 255.829 161.001 256.863 161.964 259.129L164.848 265.925C165.746 268.04 164.787 270.484 162.691 271.424C160.605 272.361 158.152 271.465 157.16 269.405Z" stroke="black"/>
</g>
<g filter="url(#filter2_di_18_2)">
<path d="M67.5 238C67.9008 244.184 68.8617 248.374 70.7308 251.272C75.8597 259.223 87.7523 257.5 97.2138 257.5H121.652C137.926 257.5 159.246 254.272 159.5 238C162.885 213.662 160.443 200.026 158 175.718C157.334 170.036 154.718 162.3 151.401 154.748C145.777 141.946 136.915 129.588 123.43 125.89C107.779 121.597 91.2367 126.645 84.5 136.218C78.8802 145.266 75.853 153.815 74.5 166C69.3704 194.268 68.2564 210.006 67.5 238Z" fill="#F2DD72"/>
<path d="M67.5 238C67.9008 244.184 68.8617 248.374 70.7308 251.272C75.8597 259.223 87.7523 257.5 97.2138 257.5H121.652C137.926 257.5 159.246 254.272 159.5 238C162.885 213.662 160.443 200.026 158 175.718C157.334 170.036 154.718 162.3 151.401 154.748C145.777 141.946 136.915 129.588 123.43 125.89C107.779 121.597 91.2367 126.645 84.5 136.218C78.8802 145.266 75.853 153.815 74.5 166C69.3704 194.268 68.2564 210.006 67.5 238Z" stroke="black"/>
</g>
<g filter="url(#filter3_i_18_2)">
<path d="M92.5 162.718C93.2449 162.51 94.0258 162.326 94.8241 162.165C103.027 160.511 111.477 164.628 115 172.218C111.205 175.491 108.914 177.157 103 178.218C102.58 178.305 102.14 178.384 101.682 178.453C94.2932 179.56 88.026 176.247 83 170.718C86.5 166.5 86.3438 165.419 92.5 162.718Z" fill="#F2AF5C"/>
</g>
<path d="M115 172.218V172.218C111.477 164.628 103.027 160.511 94.8241 162.165C94.0258 162.326 93.2449 162.51 92.5 162.718C86.3438 165.419 86.5 166.5 83 170.718M115 172.218C111.205 175.491 108.914 177.157 103 178.218C102.58 178.305 102.14 178.384 101.682 178.453C94.2932 179.56 88.026 176.247 83 170.718V170.718M115 172.218C101.132 173.663 96.8593 173.336 83 170.718" stroke="black"/>
<path d="M111.5 124.218V111.149C111.5 109.885 111.788 108.601 112.593 107.627C113.968 105.961 115.281 105.748 117.5 106.218C119.218 106.779 120.062 107.316 120.731 108.112C121.304 108.794 121.606 109.669 121.667 110.558C121.793 112.379 121.329 113.241 120.292 113.804C118.637 114.702 116.328 114.286 115.586 112.556C115.375 112.063 115.189 111.467 115 110.718" stroke="black"/>
<g filter="url(#filter4_i_18_2)">
<path d="M82.1514 255.099L83.4233 256.901C83.7849 257.413 84.3729 257.718 85 257.718L100.5 257.718C101.416 257.718 102.249 257.189 102.639 256.361L103.794 253.905C105.091 251.15 104.348 247.866 101.991 245.938L101.774 245.76C100.936 245.075 99.9517 244.583 98.8895 244.374C95.2587 243.658 92.5341 243.604 87.9631 244.517C87.3234 244.645 86.7048 244.866 86.1213 245.157L84.4388 245.999C81.0513 247.692 79.9673 252.005 82.1514 255.099Z" fill="#F2AF5C"/>
</g>
<path d="M82.1514 255.099L83.4233 256.901C83.7849 257.413 84.3729 257.718 85 257.718L100.5 257.718C101.416 257.718 102.249 257.189 102.639 256.361L103.794 253.905C105.091 251.15 104.348 247.866 101.991 245.938L101.774 245.76C100.936 245.075 99.9517 244.583 98.8895 244.374C95.2587 243.658 92.5341 243.604 87.9631 244.517C87.3234 244.645 86.7048 244.866 86.1213 245.157L84.4388 245.999C81.0513 247.692 79.9673 252.005 82.1514 255.099Z" stroke="black"/>
<g filter="url(#filter5_i_18_2)">
<path d="M119.621 245.041L117.939 245.882C114.551 247.576 113.467 251.889 115.651 254.983C116.811 256.625 118.695 257.602 120.705 257.602H125L130 257.218L132.405 257.018C134.626 256.832 136.576 255.465 137.506 253.44C138.681 250.885 137.981 247.859 135.805 246.078L135.283 245.652C134.439 244.961 133.448 244.466 132.378 244.255C128.753 243.542 126.029 243.489 121.463 244.401C120.823 244.529 120.205 244.749 119.621 245.041Z" fill="#F2AF5C"/>
</g>
<path d="M119.621 245.041L117.939 245.882C114.551 247.576 113.467 251.889 115.651 254.983C116.811 256.625 118.695 257.602 120.705 257.602H125L130 257.218L132.405 257.018C134.626 256.832 136.576 255.465 137.506 253.44C138.681 250.885 137.981 247.859 135.805 246.078L135.283 245.652C134.439 244.961 133.448 244.466 132.378 244.255C128.753 243.542 126.029 243.489 121.463 244.401C120.823 244.529 120.205 244.749 119.621 245.041Z" stroke="black"/>
<path d="M98.5 140.718L98.5 151.718" stroke="black" stroke-width="3" stroke-linecap="round"/>
<path d="M118.5 142.218V153.218" stroke="black" stroke-width="3" stroke-linecap="round"/>
<g filter="url(#filter6_i_18_2)">
<path d="M143.127 220.14L154.102 193.943C155.51 190.582 154.439 186.694 151.509 184.529C147.939 181.89 142.897 182.707 140.342 186.337L137.058 191.004C136.03 192.465 135.302 194.117 134.917 195.862L130.453 216.124C129.653 219.754 131.972 223.337 135.61 224.095C138.74 224.747 141.892 223.088 143.127 220.14Z" fill="#F2DD72"/>
<path d="M64 193.218C65.6424 187.705 67.3022 184.664 71.3416 179.974C71.5687 179.71 72 179.87 72 180.218L70 195.218L68.5161 216.488C68.5057 216.636 68.442 216.776 68.3367 216.881C68.1383 217.08 67.8311 217.119 67.5887 216.978L64.5994 215.234C62.9954 214.299 62.0165 212.565 62.0567 210.709C62.1367 207.007 62.3505 203.605 64 193.218Z" fill="#F2DD72"/>
</g>
<path d="M143.127 220.14L154.102 193.943C155.51 190.582 154.439 186.694 151.509 184.529C147.939 181.89 142.897 182.707 140.342 186.337L137.058 191.004C136.03 192.465 135.302 194.117 134.917 195.862L130.453 216.124C129.653 219.754 131.972 223.337 135.61 224.095C138.74 224.747 141.892 223.088 143.127 220.14Z" stroke="black"/>
<path d="M64 193.218C65.6424 187.705 67.3022 184.664 71.3416 179.974C71.5687 179.71 72 179.87 72 180.218L70 195.218L68.5161 216.488C68.5057 216.636 68.442 216.776 68.3367 216.881C68.1383 217.08 67.8311 217.119 67.5887 216.978L64.5994 215.234C62.9954 214.299 62.0165 212.565 62.0567 210.709C62.1367 207.007 62.3505 203.605 64 193.218Z" stroke="black"/>
<g filter="url(#filter7_bd_18_2)">
<path d="M24.5643 254.895L10.5018 204.895C9.24589 200.43 12.6017 196 17.2403 196H178.435C182.861 196 186.176 200.056 185.295 204.393L175.139 254.393C174.476 257.656 171.608 260 168.279 260H31.3028C28.1667 260 25.4134 257.914 24.5643 254.895Z" fill="white"/>
<path d="M24.5643 254.895L10.5018 204.895C9.24589 200.43 12.6017 196 17.2403 196H178.435C182.861 196 186.176 200.056 185.295 204.393L175.139 254.393C174.476 257.656 171.608 260 168.279 260H31.3028C28.1667 260 25.4134 257.914 24.5643 254.895Z" stroke="black"/>
</g>
<g filter="url(#filter8_bd_18_2)">
<path d="M7.23325 206.684L6.6142 205.684C3.72737 201.021 7.08149 195 12.5661 195H183.942C189.08 195 192.467 200.351 190.268 204.995L189.795 205.995C188.637 208.441 186.174 210 183.468 210H13.1851C10.7609 210 8.50925 208.746 7.23325 206.684Z" fill="white"/>
<path d="M7.23325 206.684L6.6142 205.684C3.72737 201.021 7.08149 195 12.5661 195H183.942C189.08 195 192.467 200.351 190.268 204.995L189.795 205.995C188.637 208.441 186.174 210 183.468 210H13.1851C10.7609 210 8.50925 208.746 7.23325 206.684Z" stroke="black"/>
</g>
<g filter="url(#filter9_di_18_2)">
<path d="M109.219 26.7125L109.021 3.50241C109.01 2.12382 110.124 1 111.503 1C112.879 1 113.993 2.12078 113.984 3.49745L113.833 26.7078C113.825 27.9762 112.794 29 111.526 29C110.259 29 109.229 27.979 109.219 26.7125Z" fill="#D2D0D0"/>
<path d="M109.219 26.7125L109.021 3.50241C109.01 2.12382 110.124 1 111.503 1C112.879 1 113.993 2.12078 113.984 3.49745L113.833 26.7078C113.825 27.9762 112.794 29 111.526 29C110.259 29 109.229 27.979 109.219 26.7125Z" stroke="black"/>
</g>
<g filter="url(#filter10_i_18_2)">
<path d="M22 195V176H35V195H22Z" fill="#8BD9D1" fill-opacity="0.5"/>
</g>
<path d="M22 194V170C22 169.448 22.4477 169 23 169H34C34.5523 169 35 169.448 35 170V194C35 194.552 34.5523 195 34 195H23C22.4477 195 22 194.552 22 194Z" fill="#2370B5" fill-opacity="0.01" stroke="black"/>
<g filter="url(#filter11_di_18_2)">
<path d="M71.6508 34.8237L71.381 33.8237C70.1805 29.375 73.5314 25 78.1393 25H145.408C149.843 25 153.16 29.0714 152.264 33.4146L152.057 34.4146C151.386 37.6669 148.522 40 145.202 40H78.4091C75.2455 40 72.475 37.8781 71.6508 34.8237Z" fill="#D2D0D0"/>
<path d="M71.6508 34.8237L71.381 33.8237C70.1805 29.375 73.5314 25 78.1393 25H145.408C149.843 25 153.16 29.0714 152.264 33.4146L152.057 34.4146C151.386 37.6669 148.522 40 145.202 40H78.4091C75.2455 40 72.475 37.8781 71.6508 34.8237Z" stroke="black"/>
</g>
<g filter="url(#filter12_f_18_2)">
<path d="M139.5 40C139.5 39.7239 139.276 39.5 139 39.5C138.724 39.5 138.5 39.7239 138.5 40H139.5ZM138.5 41.9167C138.5 42.1928 138.724 42.4167 139 42.4167C139.276 42.4167 139.5 42.1928 139.5 41.9167H138.5ZM139.5 45.75C139.5 45.4739 139.276 45.25 139 45.25C138.724 45.25 138.5 45.4739 138.5 45.75H139.5ZM138.5 49.5833C138.5 49.8595 138.724 50.0833 139 50.0833C139.276 50.0833 139.5 49.8595 139.5 49.5833H138.5ZM139.5 53.4167C139.5 53.1405 139.276 52.9167 139 52.9167C138.724 52.9167 138.5 53.1405 138.5 53.4167H139.5ZM138.5 57.25C138.5 57.5261 138.724 57.75 139 57.75C139.276 57.75 139.5 57.5261 139.5 57.25H138.5ZM139.5 61.0833C139.5 60.8072 139.276 60.5833 139 60.5833C138.724 60.5833 138.5 60.8072 138.5 61.0833H139.5ZM138.5 64.9167C138.5 65.1928 138.724 65.4167 139 65.4167C139.276 65.4167 139.5 65.1928 139.5 64.9167H138.5ZM139.5 68.75C139.5 68.4739 139.276 68.25 139 68.25C138.724 68.25 138.5 68.4739 138.5 68.75H139.5ZM138.5 72.5833C138.5 72.8595 138.724 73.0833 139 73.0833C139.276 73.0833 139.5 72.8595 139.5 72.5833H138.5ZM139.5 76.4167C139.5 76.1405 139.276 75.9167 139 75.9167C138.724 75.9167 138.5 76.1405 138.5 76.4167H139.5ZM138.5 80.25C138.5 80.5261 138.724 80.75 139 80.75C139.276 80.75 139.5 80.5261 139.5 80.25H138.5ZM139.5 84.0833C139.5 83.8072 139.276 83.5833 139 83.5833C138.724 83.5833 138.5 83.8072 138.5 84.0833H139.5ZM138.5 87.9167C138.5 88.1928 138.724 88.4167 139 88.4167C139.276 88.4167 139.5 88.1928 139.5 87.9167H138.5ZM139.5 91.75C139.5 91.4739 139.276 91.25 139 91.25C138.724 91.25 138.5 91.4739 138.5 91.75H139.5ZM138.5 95.5833C138.5 95.8595 138.724 96.0833 139 96.0833C139.276 96.0833 139.5 95.8595 139.5 95.5833H138.5ZM139.5 99.4167C139.5 99.1405 139.276 98.9167 139 98.9167C138.724 98.9167 138.5 99.1405 138.5 99.4167H139.5ZM138.5 103.25C138.5 103.526 138.724 103.75 139 103.75C139.276 103.75 139.5 103.526 139.5 103.25H138.5ZM139.5 107.083C139.5 106.807 139.276 106.583 139 106.583C138.724 106.583 138.5 106.807 138.5 107.083H139.5ZM138.5 110.917C138.5 111.193 138.724 111.417 139 111.417C139.276 111.417 139.5 111.193 139.5 110.917H138.5ZM139.5 114.75C139.5 114.474 139.276 114.25 139 114.25C138.724 114.25 138.5 114.474 138.5 114.75H139.5ZM138.5 118.583C138.5 118.859 138.724 119.083 139 119.083C139.276 119.083 139.5 118.859 139.5 118.583H138.5ZM139.5 122.417C139.5 122.141 139.276 121.917 139 121.917C138.724 121.917 138.5 122.141 138.5 122.417H139.5ZM138.5 126.25C138.5 126.526 138.724 126.75 139 126.75C139.276 126.75 139.5 126.526 139.5 126.25H138.5ZM139.5 130.083C139.5 129.807 139.276 129.583 139 129.583C138.724 129.583 138.5 129.807 138.5 130.083H139.5ZM138.5 40V41.9167H139.5V40H138.5ZM138.5 45.75V49.5833H139.5V45.75H138.5ZM138.5 53.4167V57.25H139.5V53.4167H138.5ZM138.5 61.0833V64.9167H139.5V61.0833H138.5ZM138.5 68.75V72.5833H139.5V68.75H138.5ZM138.5 76.4167V80.25H139.5V76.4167H138.5ZM138.5 84.0833V87.9167H139.5V84.0833H138.5ZM138.5 91.75V95.5833H139.5V91.75H138.5ZM138.5 99.4167V103.25H139.5V99.4167H138.5ZM138.5 107.083V110.917H139.5V107.083H138.5ZM138.5 114.75V118.583H139.5V114.75H138.5ZM138.5 122.417V126.25H139.5V122.417H138.5ZM138.5 130.083V132H139.5V130.083H138.5Z" fill="#2370B5" fill-opacity="0.44"/>
</g>
<g filter="url(#filter13_f_18_2)">
<path d="M91.5 40C91.5 39.7239 91.2761 39.5 91 39.5C90.7239 39.5 90.5 39.7239 90.5 40L91.5 40ZM90.5 41.9091C90.5 42.1852 90.7239 42.4091 91 42.4091C91.2761 42.4091 91.5 42.1852 91.5 41.9091L90.5 41.9091ZM91.5 45.7273C91.5 45.4511 91.2761 45.2273 91 45.2273C90.7239 45.2273 90.5 45.4511 90.5 45.7273L91.5 45.7273ZM90.5 49.5455C90.5 49.8216 90.7239 50.0455 91 50.0455C91.2761 50.0455 91.5 49.8216 91.5 49.5455L90.5 49.5455ZM91.5 53.3636C91.5 53.0875 91.2761 52.8636 91 52.8636C90.7239 52.8636 90.5 53.0875 90.5 53.3636L91.5 53.3636ZM90.5 57.1818C90.5 57.458 90.7239 57.6818 91 57.6818C91.2761 57.6818 91.5 57.458 91.5 57.1818L90.5 57.1818ZM91.5 61C91.5 60.7239 91.2761 60.5 91 60.5C90.7239 60.5 90.5 60.7239 90.5 61L91.5 61ZM90.5 64.8182C90.5 65.0943 90.7239 65.3182 91 65.3182C91.2761 65.3182 91.5 65.0943 91.5 64.8182L90.5 64.8182ZM91.5 68.6364C91.5 68.3602 91.2761 68.1364 91 68.1364C90.7239 68.1364 90.5 68.3602 90.5 68.6364L91.5 68.6364ZM90.5 72.4545C90.5 72.7307 90.7239 72.9545 91 72.9545C91.2761 72.9545 91.5 72.7307 91.5 72.4545L90.5 72.4545ZM91.5 76.2727C91.5 75.9966 91.2761 75.7727 91 75.7727C90.7239 75.7727 90.5 75.9966 90.5 76.2727L91.5 76.2727ZM90.5 80.0909C90.5 80.367 90.7239 80.5909 91 80.5909C91.2761 80.5909 91.5 80.367 91.5 80.0909L90.5 80.0909ZM91.5 83.9091C91.5 83.6329 91.2761 83.4091 91 83.4091C90.7239 83.4091 90.5 83.6329 90.5 83.9091L91.5 83.9091ZM90.5 87.7273C90.5 88.0034 90.7239 88.2273 91 88.2273C91.2761 88.2273 91.5 88.0034 91.5 87.7273L90.5 87.7273ZM91.5 91.5454C91.5 91.2693 91.2761 91.0454 91 91.0454C90.7239 91.0454 90.5 91.2693 90.5 91.5454L91.5 91.5454ZM90.5 95.3636C90.5 95.6398 90.7239 95.8636 91 95.8636C91.2761 95.8636 91.5 95.6398 91.5 95.3636L90.5 95.3636ZM91.5 99.1818C91.5 98.9057 91.2761 98.6818 91 98.6818C90.7239 98.6818 90.5 98.9057 90.5 99.1818L91.5 99.1818ZM90.5 103C90.5 103.276 90.7239 103.5 91 103.5C91.2761 103.5 91.5 103.276 91.5 103L90.5 103ZM91.5 106.818C91.5 106.542 91.2761 106.318 91 106.318C90.7239 106.318 90.5 106.542 90.5 106.818L91.5 106.818ZM90.5 110.636C90.5 110.912 90.7239 111.136 91 111.136C91.2761 111.136 91.5 110.912 91.5 110.636L90.5 110.636ZM91.5 114.455C91.5 114.178 91.2761 113.955 91 113.955C90.7239 113.955 90.5 114.178 90.5 114.455L91.5 114.455ZM90.5 118.273C90.5 118.549 90.7239 118.773 91 118.773C91.2761 118.773 91.5 118.549 91.5 118.273L90.5 118.273ZM91.5 122.091C91.5 121.815 91.2761 121.591 91 121.591C90.7239 121.591 90.5 121.815 90.5 122.091L91.5 122.091ZM90.5 40L90.5 41.9091L91.5 41.9091L91.5 40L90.5 40ZM90.5 45.7273L90.5 49.5455L91.5 49.5455L91.5 45.7273L90.5 45.7273ZM90.5 53.3636L90.5 57.1818L91.5 57.1818L91.5 53.3636L90.5 53.3636ZM90.5 61L90.5 64.8182L91.5 64.8182L91.5 61L90.5 61ZM90.5 68.6364L90.5 72.4545L91.5 72.4545L91.5 68.6364L90.5 68.6364ZM90.5 76.2727L90.5 80.0909L91.5 80.0909L91.5 76.2727L90.5 76.2727ZM90.5 83.9091L90.5 87.7273L91.5 87.7273L91.5 83.9091L90.5 83.9091ZM90.5 91.5454L90.5 95.3636L91.5 95.3636L91.5 91.5454L90.5 91.5454ZM90.5 99.1818L90.5 103L91.5 103L91.5 99.1818L90.5 99.1818ZM90.5 106.818L90.5 110.636L91.5 110.636L91.5 106.818L90.5 106.818ZM90.5 114.455L90.5 118.273L91.5 118.273L91.5 114.455L90.5 114.455ZM90.5 122.091L90.5 124L91.5 124L91.5 122.091L90.5 122.091Z" fill="#2370B5" fill-opacity="0.44"/>
</g>
<g filter="url(#filter14_f_18_2)">
<path d="M83.5 131C83.5 131.276 83.7239 131.5 84 131.5C84.2761 131.5 84.5 131.276 84.5 131L83.5 131ZM83.5 42.0682C83.5 42.3443 83.7239 42.5682 84 42.5682C84.2761 42.5682 84.5 42.3443 84.5 42.0682L83.5 42.0682ZM84.5 46.2045C84.5 45.9284 84.2761 45.7045 84 45.7045C83.7239 45.7045 83.5 45.9284 83.5 46.2045L84.5 46.2045ZM83.5 50.3409C83.5 50.6171 83.7239 50.8409 84 50.8409C84.2761 50.8409 84.5 50.6171 84.5 50.3409L83.5 50.3409ZM84.5 54.4773C84.5 54.2011 84.2761 53.9773 84 53.9773C83.7239 53.9773 83.5 54.2011 83.5 54.4773L84.5 54.4773ZM83.5 58.6136C83.5 58.8898 83.7239 59.1136 84 59.1136C84.2761 59.1136 84.5 58.8898 84.5 58.6136L83.5 58.6136ZM84.5 62.75C84.5 62.4739 84.2761 62.25 84 62.25C83.7239 62.25 83.5 62.4739 83.5 62.75L84.5 62.75ZM83.5 66.8864C83.5 67.1625 83.7239 67.3864 84 67.3864C84.2761 67.3864 84.5 67.1625 84.5 66.8864L83.5 66.8864ZM84.5 71.0227C84.5 70.7466 84.2761 70.5227 84 70.5227C83.7239 70.5227 83.5 70.7466 83.5 71.0227L84.5 71.0227ZM83.5 75.1591C83.5 75.4352 83.7239 75.6591 84 75.6591C84.2761 75.6591 84.5 75.4352 84.5 75.1591L83.5 75.1591ZM84.5 79.2955C84.5 79.0193 84.2761 78.7955 84 78.7955C83.7239 78.7955 83.5 79.0193 83.5 79.2955L84.5 79.2955ZM83.5 83.4318C83.5 83.708 83.7239 83.9318 84 83.9318C84.2761 83.9318 84.5 83.708 84.5 83.4318L83.5 83.4318ZM84.5 87.5682C84.5 87.292 84.2761 87.0682 84 87.0682C83.7239 87.0682 83.5 87.292 83.5 87.5682L84.5 87.5682ZM83.5 91.7046C83.5 91.9807 83.7239 92.2046 84 92.2046C84.2761 92.2046 84.5 91.9807 84.5 91.7046L83.5 91.7046ZM84.5 95.8409C84.5 95.5648 84.2761 95.3409 84 95.3409C83.7239 95.3409 83.5 95.5648 83.5 95.8409L84.5 95.8409ZM83.5 99.9773C83.5 100.253 83.7239 100.477 84 100.477C84.2761 100.477 84.5 100.253 84.5 99.9773L83.5 99.9773ZM84.5 104.114C84.5 103.837 84.2761 103.614 84 103.614C83.7239 103.614 83.5 103.837 83.5 104.114L84.5 104.114ZM83.5 108.25C83.5 108.526 83.7239 108.75 84 108.75C84.2761 108.75 84.5 108.526 84.5 108.25L83.5 108.25ZM84.5 112.386C84.5 112.11 84.2761 111.886 84 111.886C83.7239 111.886 83.5 112.11 83.5 112.386L84.5 112.386ZM83.5 116.523C83.5 116.799 83.7239 117.023 84 117.023C84.2761 117.023 84.5 116.799 84.5 116.523L83.5 116.523ZM84.5 120.659C84.5 120.383 84.2761 120.159 84 120.159C83.7239 120.159 83.5 120.383 83.5 120.659L84.5 120.659ZM83.5 124.795C83.5 125.072 83.7239 125.295 84 125.295C84.2761 125.295 84.5 125.072 84.5 124.795L83.5 124.795ZM84.5 128.932C84.5 128.656 84.2761 128.432 84 128.432C83.7239 128.432 83.5 128.656 83.5 128.932L84.5 128.932ZM83.5 40L83.5 42.0682L84.5 42.0682L84.5 40L83.5 40ZM83.5 46.2045L83.5 50.3409L84.5 50.3409L84.5 46.2045L83.5 46.2045ZM83.5 54.4773L83.5 58.6136L84.5 58.6136L84.5 54.4773L83.5 54.4773ZM83.5 62.75L83.5 66.8864L84.5 66.8864L84.5 62.75L83.5 62.75ZM83.5 71.0227L83.5 75.1591L84.5 75.1591L84.5 71.0227L83.5 71.0227ZM83.5 79.2955L83.5 83.4318L84.5 83.4318L84.5 79.2955L83.5 79.2955ZM83.5 87.5682L83.5 91.7046L84.5 91.7046L84.5 87.5682L83.5 87.5682ZM83.5 95.8409L83.5 99.9773L84.5 99.9773L84.5 95.8409L83.5 95.8409ZM83.5 104.114L83.5 108.25L84.5 108.25L84.5 104.114L83.5 104.114ZM83.5 112.386L83.5 116.523L84.5 116.523L84.5 112.386L83.5 112.386ZM83.5 120.659L83.5 124.795L84.5 124.795L84.5 120.659L83.5 120.659ZM83.5 128.932L83.5 131L84.5 131L84.5 128.932L83.5 128.932Z" fill="#2370B5" fill-opacity="0.44"/>
</g>
<g filter="url(#filter15_f_18_2)">
<path d="M105.5 40C105.5 39.7239 105.276 39.5 105 39.5C104.724 39.5 104.5 39.7239 104.5 40H105.5ZM104.5 42.025C104.5 42.3011 104.724 42.525 105 42.525C105.276 42.525 105.5 42.3011 105.5 42.025L104.5 42.025ZM105.5 46.075C105.5 45.7989 105.276 45.575 105 45.575C104.724 45.575 104.5 45.7989 104.5 46.075H105.5ZM104.5 50.125C104.5 50.4011 104.724 50.625 105 50.625C105.276 50.625 105.5 50.4011 105.5 50.125H104.5ZM105.5 54.175C105.5 53.8989 105.276 53.675 105 53.675C104.724 53.675 104.5 53.8989 104.5 54.175H105.5ZM104.5 58.225C104.5 58.5011 104.724 58.725 105 58.725C105.276 58.725 105.5 58.5011 105.5 58.225L104.5 58.225ZM105.5 62.275C105.5 61.9989 105.276 61.775 105 61.775C104.724 61.775 104.5 61.9989 104.5 62.275H105.5ZM104.5 66.325C104.5 66.6011 104.724 66.825 105 66.825C105.276 66.825 105.5 66.6011 105.5 66.325H104.5ZM105.5 70.375C105.5 70.0989 105.276 69.875 105 69.875C104.724 69.875 104.5 70.0989 104.5 70.375H105.5ZM104.5 74.425C104.5 74.7011 104.724 74.925 105 74.925C105.276 74.925 105.5 74.7011 105.5 74.425L104.5 74.425ZM105.5 78.475C105.5 78.1989 105.276 77.975 105 77.975C104.724 77.975 104.5 78.1989 104.5 78.475L105.5 78.475ZM104.5 82.525C104.5 82.8011 104.724 83.025 105 83.025C105.276 83.025 105.5 82.8011 105.5 82.525H104.5ZM105.5 86.575C105.5 86.2989 105.276 86.075 105 86.075C104.724 86.075 104.5 86.2989 104.5 86.575H105.5ZM104.5 90.625C104.5 90.9011 104.724 91.125 105 91.125C105.276 91.125 105.5 90.9011 105.5 90.625L104.5 90.625ZM105.5 94.675C105.5 94.3989 105.276 94.175 105 94.175C104.724 94.175 104.5 94.3989 104.5 94.675L105.5 94.675ZM104.5 98.725C104.5 99.0011 104.724 99.225 105 99.225C105.276 99.225 105.5 99.0011 105.5 98.725H104.5ZM105.5 102.775C105.5 102.499 105.276 102.275 105 102.275C104.724 102.275 104.5 102.499 104.5 102.775H105.5ZM104.5 106.825C104.5 107.101 104.724 107.325 105 107.325C105.276 107.325 105.5 107.101 105.5 106.825H104.5ZM105.5 110.875C105.5 110.599 105.276 110.375 105 110.375C104.724 110.375 104.5 110.599 104.5 110.875L105.5 110.875ZM104.5 114.925C104.5 115.201 104.724 115.425 105 115.425C105.276 115.425 105.5 115.201 105.5 114.925H104.5ZM105.5 118.975C105.5 118.699 105.276 118.475 105 118.475C104.724 118.475 104.5 118.699 104.5 118.975L105.5 118.975ZM104.5 40V42.025L105.5 42.025V40H104.5ZM104.5 46.075V50.125H105.5V46.075H104.5ZM104.5 54.175L104.5 58.225L105.5 58.225L105.5 54.175H104.5ZM104.5 62.275L104.5 66.325H105.5V62.275H104.5ZM104.5 70.375V74.425L105.5 74.425V70.375H104.5ZM104.5 78.475V82.525H105.5V78.475L104.5 78.475ZM104.5 86.575L104.5 90.625L105.5 90.625L105.5 86.575H104.5ZM104.5 94.675L104.5 98.725H105.5L105.5 94.675L104.5 94.675ZM104.5 102.775V106.825H105.5V102.775H104.5ZM104.5 110.875V114.925H105.5V110.875L104.5 110.875ZM104.5 118.975V121H105.5V118.975L104.5 118.975Z" fill="#2370B5" fill-opacity="0.44"/>
</g>
<g filter="url(#filter16_f_18_2)">
<path d="M97.5 121C97.5 121.276 97.7239 121.5 98 121.5C98.2761 121.5 98.5 121.276 98.5 121H97.5ZM97.5 42.025C97.5 42.3011 97.7239 42.525 98 42.525C98.2761 42.525 98.5 42.3011 98.5 42.025H97.5ZM98.5 46.075C98.5 45.7989 98.2761 45.575 98 45.575C97.7239 45.575 97.5 45.7989 97.5 46.075H98.5ZM97.5 50.125C97.5 50.4011 97.7239 50.625 98 50.625C98.2761 50.625 98.5 50.4011 98.5 50.125H97.5ZM98.5 54.175C98.5 53.8989 98.2761 53.675 98 53.675C97.7239 53.675 97.5 53.8989 97.5 54.175H98.5ZM97.5 58.225C97.5 58.5011 97.7239 58.725 98 58.725C98.2761 58.725 98.5 58.5011 98.5 58.225H97.5ZM98.5 62.275C98.5 61.9989 98.2761 61.775 98 61.775C97.7239 61.775 97.5 61.9989 97.5 62.275H98.5ZM97.5 66.325C97.5 66.6011 97.7239 66.825 98 66.825C98.2761 66.825 98.5 66.6011 98.5 66.325H97.5ZM98.5 70.375C98.5 70.0989 98.2761 69.875 98 69.875C97.7239 69.875 97.5 70.0989 97.5 70.375H98.5ZM97.5 74.425C97.5 74.7011 97.7239 74.925 98 74.925C98.2761 74.925 98.5 74.7011 98.5 74.425H97.5ZM98.5 78.475C98.5 78.1989 98.2761 77.975 98 77.975C97.7239 77.975 97.5 78.1989 97.5 78.475H98.5ZM97.5 82.525C97.5 82.8011 97.7239 83.025 98 83.025C98.2761 83.025 98.5 82.8011 98.5 82.525H97.5ZM98.5 86.575C98.5 86.2989 98.2761 86.075 98 86.075C97.7239 86.075 97.5 86.2989 97.5 86.575H98.5ZM97.5 90.625C97.5 90.9011 97.7239 91.125 98 91.125C98.2761 91.125 98.5 90.9011 98.5 90.625H97.5ZM98.5 94.675C98.5 94.3989 98.2761 94.175 98 94.175C97.7239 94.175 97.5 94.3989 97.5 94.675H98.5ZM97.5 98.725C97.5 99.0011 97.7239 99.225 98 99.225C98.2761 99.225 98.5 99.0011 98.5 98.725H97.5ZM98.5 102.775C98.5 102.499 98.2761 102.275 98 102.275C97.7239 102.275 97.5 102.499 97.5 102.775H98.5ZM97.5 106.825C97.5 107.101 97.7239 107.325 98 107.325C98.2761 107.325 98.5 107.101 98.5 106.825H97.5ZM98.5 110.875C98.5 110.599 98.2761 110.375 98 110.375C97.7239 110.375 97.5 110.599 97.5 110.875H98.5ZM97.5 114.925C97.5 115.201 97.7239 115.425 98 115.425C98.2761 115.425 98.5 115.201 98.5 114.925H97.5ZM98.5 118.975C98.5 118.699 98.2761 118.475 98 118.475C97.7239 118.475 97.5 118.699 97.5 118.975H98.5ZM97.5 40V42.025H98.5V40H97.5ZM97.5 46.075V50.125H98.5V46.075H97.5ZM97.5 54.175V58.225H98.5V54.175H97.5ZM97.5 62.275V66.325H98.5V62.275H97.5ZM97.5 70.375V74.425H98.5V70.375H97.5ZM97.5 78.475V82.525H98.5V78.475H97.5ZM97.5 86.575V90.625H98.5V86.575H97.5ZM97.5 94.675V98.725H98.5V94.675H97.5ZM97.5 102.775V106.825H98.5V102.775H97.5ZM97.5 110.875V114.925H98.5V110.875H97.5ZM97.5 118.975V121H98.5V118.975H97.5Z" fill="#2370B5" fill-opacity="0.44"/>
</g>
<g filter="url(#filter17_f_18_2)">
<path d="M119.5 40C119.5 39.7239 119.276 39.5 119 39.5C118.724 39.5 118.5 39.7239 118.5 40L119.5 40ZM118.5 42.075C118.5 42.3511 118.724 42.575 119 42.575C119.276 42.575 119.5 42.3511 119.5 42.075L118.5 42.075ZM119.5 46.225C119.5 45.9489 119.276 45.725 119 45.725C118.724 45.725 118.5 45.9489 118.5 46.225L119.5 46.225ZM118.5 50.375C118.5 50.6511 118.724 50.875 119 50.875C119.276 50.875 119.5 50.6511 119.5 50.375L118.5 50.375ZM119.5 54.525C119.5 54.2489 119.276 54.025 119 54.025C118.724 54.025 118.5 54.2489 118.5 54.525L119.5 54.525ZM118.5 58.675C118.5 58.9511 118.724 59.175 119 59.175C119.276 59.175 119.5 58.9511 119.5 58.675L118.5 58.675ZM119.5 62.825C119.5 62.5489 119.276 62.325 119 62.325C118.724 62.325 118.5 62.5489 118.5 62.825L119.5 62.825ZM118.5 66.975C118.5 67.2511 118.724 67.475 119 67.475C119.276 67.475 119.5 67.2511 119.5 66.975L118.5 66.975ZM119.5 71.125C119.5 70.8489 119.276 70.625 119 70.625C118.724 70.625 118.5 70.8489 118.5 71.125L119.5 71.125ZM118.5 75.275C118.5 75.5511 118.724 75.775 119 75.775C119.276 75.775 119.5 75.5511 119.5 75.275L118.5 75.275ZM119.5 79.425C119.5 79.1489 119.276 78.925 119 78.925C118.724 78.925 118.5 79.1489 118.5 79.425L119.5 79.425ZM118.5 83.575C118.5 83.8511 118.724 84.075 119 84.075C119.276 84.075 119.5 83.8511 119.5 83.575L118.5 83.575ZM119.5 87.725C119.5 87.4489 119.276 87.225 119 87.225C118.724 87.225 118.5 87.4489 118.5 87.725L119.5 87.725ZM118.5 91.875C118.5 92.1511 118.724 92.375 119 92.375C119.276 92.375 119.5 92.1511 119.5 91.875L118.5 91.875ZM119.5 96.025C119.5 95.7489 119.276 95.525 119 95.525C118.724 95.525 118.5 95.7489 118.5 96.025L119.5 96.025ZM118.5 100.175C118.5 100.451 118.724 100.675 119 100.675C119.276 100.675 119.5 100.451 119.5 100.175L118.5 100.175ZM119.5 104.325C119.5 104.049 119.276 103.825 119 103.825C118.724 103.825 118.5 104.049 118.5 104.325L119.5 104.325ZM118.5 108.475C118.5 108.751 118.724 108.975 119 108.975C119.276 108.975 119.5 108.751 119.5 108.475L118.5 108.475ZM119.5 112.625C119.5 112.349 119.276 112.125 119 112.125C118.724 112.125 118.5 112.349 118.5 112.625L119.5 112.625ZM118.5 116.775C118.5 117.051 118.724 117.275 119 117.275C119.276 117.275 119.5 117.051 119.5 116.775L118.5 116.775ZM119.5 120.925C119.5 120.649 119.276 120.425 119 120.425C118.724 120.425 118.5 120.649 118.5 120.925L119.5 120.925ZM118.5 40L118.5 42.075L119.5 42.075L119.5 40L118.5 40ZM118.5 46.225L118.5 50.375L119.5 50.375L119.5 46.225L118.5 46.225ZM118.5 54.525L118.5 58.675L119.5 58.675L119.5 54.525L118.5 54.525ZM118.5 62.825L118.5 66.975L119.5 66.975L119.5 62.825L118.5 62.825ZM118.5 71.125L118.5 75.275L119.5 75.275L119.5 71.125L118.5 71.125ZM118.5 79.425L118.5 83.575L119.5 83.575L119.5 79.425L118.5 79.425ZM118.5 87.725L118.5 91.875L119.5 91.875L119.5 87.725L118.5 87.725ZM118.5 96.025L118.5 100.175L119.5 100.175L119.5 96.025L118.5 96.025ZM118.5 104.325L118.5 108.475L119.5 108.475L119.5 104.325L118.5 104.325ZM118.5 112.625L118.5 116.775L119.5 116.775L119.5 112.625L118.5 112.625ZM118.5 120.925L118.5 123L119.5 123L119.5 120.925L118.5 120.925Z" fill="#2370B5" fill-opacity="0.44"/>
</g>
<g filter="url(#filter18_f_18_2)">
<path d="M125.5 124C125.5 124.276 125.724 124.5 126 124.5C126.276 124.5 126.5 124.276 126.5 124L125.5 124ZM125.5 41.9091C125.5 42.1852 125.724 42.4091 126 42.4091C126.276 42.4091 126.5 42.1852 126.5 41.9091L125.5 41.9091ZM126.5 45.7273C126.5 45.4511 126.276 45.2273 126 45.2273C125.724 45.2273 125.5 45.4511 125.5 45.7273L126.5 45.7273ZM125.5 49.5455C125.5 49.8216 125.724 50.0455 126 50.0455C126.276 50.0455 126.5 49.8216 126.5 49.5455L125.5 49.5455ZM126.5 53.3636C126.5 53.0875 126.276 52.8636 126 52.8636C125.724 52.8636 125.5 53.0875 125.5 53.3636L126.5 53.3636ZM125.5 57.1818C125.5 57.458 125.724 57.6818 126 57.6818C126.276 57.6818 126.5 57.458 126.5 57.1818L125.5 57.1818ZM126.5 61C126.5 60.7239 126.276 60.5 126 60.5C125.724 60.5 125.5 60.7239 125.5 61L126.5 61ZM125.5 64.8182C125.5 65.0943 125.724 65.3182 126 65.3182C126.276 65.3182 126.5 65.0943 126.5 64.8182L125.5 64.8182ZM126.5 68.6364C126.5 68.3602 126.276 68.1364 126 68.1364C125.724 68.1364 125.5 68.3602 125.5 68.6364L126.5 68.6364ZM125.5 72.4545C125.5 72.7307 125.724 72.9545 126 72.9545C126.276 72.9545 126.5 72.7307 126.5 72.4545L125.5 72.4545ZM126.5 76.2727C126.5 75.9966 126.276 75.7727 126 75.7727C125.724 75.7727 125.5 75.9966 125.5 76.2727L126.5 76.2727ZM125.5 80.0909C125.5 80.367 125.724 80.5909 126 80.5909C126.276 80.5909 126.5 80.367 126.5 80.0909L125.5 80.0909ZM126.5 83.9091C126.5 83.6329 126.276 83.4091 126 83.4091C125.724 83.4091 125.5 83.6329 125.5 83.9091L126.5 83.9091ZM125.5 87.7273C125.5 88.0034 125.724 88.2273 126 88.2273C126.276 88.2273 126.5 88.0034 126.5 87.7273L125.5 87.7273ZM126.5 91.5454C126.5 91.2693 126.276 91.0454 126 91.0454C125.724 91.0454 125.5 91.2693 125.5 91.5454L126.5 91.5454ZM125.5 95.3636C125.5 95.6398 125.724 95.8636 126 95.8636C126.276 95.8636 126.5 95.6398 126.5 95.3636L125.5 95.3636ZM126.5 99.1818C126.5 98.9057 126.276 98.6818 126 98.6818C125.724 98.6818 125.5 98.9057 125.5 99.1818L126.5 99.1818ZM125.5 103C125.5 103.276 125.724 103.5 126 103.5C126.276 103.5 126.5 103.276 126.5 103L125.5 103ZM126.5 106.818C126.5 106.542 126.276 106.318 126 106.318C125.724 106.318 125.5 106.542 125.5 106.818L126.5 106.818ZM125.5 110.636C125.5 110.912 125.724 111.136 126 111.136C126.276 111.136 126.5 110.912 126.5 110.636L125.5 110.636ZM126.5 114.455C126.5 114.178 126.276 113.955 126 113.955C125.724 113.955 125.5 114.178 125.5 114.455L126.5 114.455ZM125.5 118.273C125.5 118.549 125.724 118.773 126 118.773C126.276 118.773 126.5 118.549 126.5 118.273L125.5 118.273ZM126.5 122.091C126.5 121.815 126.276 121.591 126 121.591C125.724 121.591 125.5 121.815 125.5 122.091L126.5 122.091ZM125.5 40L125.5 41.9091L126.5 41.9091L126.5 40L125.5 40ZM125.5 45.7273L125.5 49.5455L126.5 49.5455L126.5 45.7273L125.5 45.7273ZM125.5 53.3636L125.5 57.1818L126.5 57.1818L126.5 53.3636L125.5 53.3636ZM125.5 61L125.5 64.8182L126.5 64.8182L126.5 61L125.5 61ZM125.5 68.6364L125.5 72.4545L126.5 72.4545L126.5 68.6364L125.5 68.6364ZM125.5 76.2727L125.5 80.0909L126.5 80.0909L126.5 76.2727L125.5 76.2727ZM125.5 83.9091L125.5 87.7273L126.5 87.7273L126.5 83.9091L125.5 83.9091ZM125.5 91.5454L125.5 95.3636L126.5 95.3636L126.5 91.5454L125.5 91.5454ZM125.5 99.1818L125.5 103L126.5 103L126.5 99.1818L125.5 99.1818ZM125.5 106.818L125.5 110.636L126.5 110.636L126.5 106.818L125.5 106.818ZM125.5 114.455L125.5 118.273L126.5 118.273L126.5 114.455L125.5 114.455ZM125.5 122.091L125.5 124L126.5 124L126.5 122.091L125.5 122.091Z" fill="#2370B5" fill-opacity="0.44"/>
</g>
<g filter="url(#filter19_f_18_2)">
<path d="M132.5 126C132.5 126.276 132.724 126.5 133 126.5C133.276 126.5 133.5 126.276 133.5 126L132.5 126ZM132.5 41.9545C132.5 42.2307 132.724 42.4545 133 42.4545C133.276 42.4545 133.5 42.2307 133.5 41.9545L132.5 41.9545ZM133.5 45.8636C133.5 45.5875 133.276 45.3636 133 45.3636C132.724 45.3636 132.5 45.5875 132.5 45.8636L133.5 45.8636ZM132.5 49.7727C132.5 50.0489 132.724 50.2727 133 50.2727C133.276 50.2727 133.5 50.0489 133.5 49.7727L132.5 49.7727ZM133.5 53.6818C133.5 53.4057 133.276 53.1818 133 53.1818C132.724 53.1818 132.5 53.4057 132.5 53.6818L133.5 53.6818ZM132.5 57.5909C132.5 57.8671 132.724 58.0909 133 58.0909C133.276 58.0909 133.5 57.8671 133.5 57.5909L132.5 57.5909ZM133.5 61.5C133.5 61.2239 133.276 61 133 61C132.724 61 132.5 61.2239 132.5 61.5L133.5 61.5ZM132.5 65.4091C132.5 65.6852 132.724 65.9091 133 65.9091C133.276 65.9091 133.5 65.6852 133.5 65.4091L132.5 65.4091ZM133.5 69.3182C133.5 69.042 133.276 68.8182 133 68.8182C132.724 68.8182 132.5 69.042 132.5 69.3182L133.5 69.3182ZM132.5 73.2273C132.5 73.5034 132.724 73.7273 133 73.7273C133.276 73.7273 133.5 73.5034 133.5 73.2273L132.5 73.2273ZM133.5 77.1364C133.5 76.8602 133.276 76.6364 133 76.6364C132.724 76.6364 132.5 76.8602 132.5 77.1364L133.5 77.1364ZM132.5 81.0455C132.5 81.3216 132.724 81.5455 133 81.5455C133.276 81.5455 133.5 81.3216 133.5 81.0455L132.5 81.0455ZM133.5 84.9546C133.5 84.6784 133.276 84.4546 133 84.4546C132.724 84.4546 132.5 84.6784 132.5 84.9546L133.5 84.9546ZM132.5 88.8636C132.5 89.1398 132.724 89.3636 133 89.3636C133.276 89.3636 133.5 89.1398 133.5 88.8636L132.5 88.8636ZM133.5 92.7727C133.5 92.4966 133.276 92.2727 133 92.2727C132.724 92.2727 132.5 92.4966 132.5 92.7727L133.5 92.7727ZM132.5 96.6818C132.5 96.958 132.724 97.1818 133 97.1818C133.276 97.1818 133.5 96.958 133.5 96.6818L132.5 96.6818ZM133.5 100.591C133.5 100.315 133.276 100.091 133 100.091C132.724 100.091 132.5 100.315 132.5 100.591L133.5 100.591ZM132.5 104.5C132.5 104.776 132.724 105 133 105C133.276 105 133.5 104.776 133.5 104.5L132.5 104.5ZM133.5 108.409C133.5 108.133 133.276 107.909 133 107.909C132.724 107.909 132.5 108.133 132.5 108.409L133.5 108.409ZM132.5 112.318C132.5 112.594 132.724 112.818 133 112.818C133.276 112.818 133.5 112.594 133.5 112.318L132.5 112.318ZM133.5 116.227C133.5 115.951 133.276 115.727 133 115.727C132.724 115.727 132.5 115.951 132.5 116.227L133.5 116.227ZM132.5 120.136C132.5 120.413 132.724 120.636 133 120.636C133.276 120.636 133.5 120.413 133.5 120.136L132.5 120.136ZM133.5 124.045C133.5 123.769 133.276 123.545 133 123.545C132.724 123.545 132.5 123.769 132.5 124.045L133.5 124.045ZM132.5 40L132.5 41.9545L133.5 41.9545L133.5 40L132.5 40ZM132.5 45.8636L132.5 49.7727L133.5 49.7727L133.5 45.8636L132.5 45.8636ZM132.5 53.6818L132.5 57.5909L133.5 57.5909L133.5 53.6818L132.5 53.6818ZM132.5 61.5L132.5 65.4091L133.5 65.4091L133.5 61.5L132.5 61.5ZM132.5 69.3182L132.5 73.2273L133.5 73.2273L133.5 69.3182L132.5 69.3182ZM132.5 77.1364L132.5 81.0455L133.5 81.0455L133.5 77.1364L132.5 77.1364ZM132.5 84.9546L132.5 88.8636L133.5 88.8636L133.5 84.9546L132.5 84.9546ZM132.5 92.7727L132.5 96.6818L133.5 96.6818L133.5 92.7727L132.5 92.7727ZM132.5 100.591L132.5 104.5L133.5 104.5L133.5 100.591L132.5 100.591ZM132.5 108.409L132.5 112.318L133.5 112.318L133.5 108.409L132.5 108.409ZM132.5 116.227L132.5 120.136L133.5 120.136L133.5 116.227L132.5 116.227ZM132.5 124.045L132.5 126L133.5 126L133.5 124.045L132.5 124.045Z" fill="#2370B5" fill-opacity="0.44"/>
</g>
<g filter="url(#filter20_f_18_2)">
<path d="M112.5 40C112.5 39.7239 112.276 39.5 112 39.5C111.724 39.5 111.5 39.7239 111.5 40H112.5ZM111.5 41.9062C111.5 42.1824 111.724 42.4062 112 42.4062C112.276 42.4062 112.5 42.1824 112.5 41.9062H111.5ZM112.5 45.7188C112.5 45.4426 112.276 45.2188 112 45.2188C111.724 45.2188 111.5 45.4426 111.5 45.7188H112.5ZM111.5 49.5312C111.5 49.8074 111.724 50.0312 112 50.0312C112.276 50.0312 112.5 49.8074 112.5 49.5312H111.5ZM112.5 53.3438C112.5 53.0676 112.276 52.8438 112 52.8438C111.724 52.8438 111.5 53.0676 111.5 53.3438H112.5ZM111.5 57.1562C111.5 57.4324 111.724 57.6562 112 57.6562C112.276 57.6562 112.5 57.4324 112.5 57.1562H111.5ZM112.5 60.9688C112.5 60.6926 112.276 60.4688 112 60.4688C111.724 60.4688 111.5 60.6926 111.5 60.9688H112.5ZM111.5 64.7812C111.5 65.0574 111.724 65.2812 112 65.2812C112.276 65.2812 112.5 65.0574 112.5 64.7812H111.5ZM112.5 68.5938C112.5 68.3176 112.276 68.0938 112 68.0938C111.724 68.0938 111.5 68.3176 111.5 68.5938H112.5ZM111.5 72.4062C111.5 72.6824 111.724 72.9062 112 72.9062C112.276 72.9062 112.5 72.6824 112.5 72.4062H111.5ZM112.5 76.2188C112.5 75.9426 112.276 75.7188 112 75.7188C111.724 75.7188 111.5 75.9426 111.5 76.2188H112.5ZM111.5 80.0312C111.5 80.3074 111.724 80.5312 112 80.5312C112.276 80.5312 112.5 80.3074 112.5 80.0312H111.5ZM112.5 83.8438C112.5 83.5676 112.276 83.3438 112 83.3438C111.724 83.3438 111.5 83.5676 111.5 83.8438H112.5ZM111.5 87.6562C111.5 87.9324 111.724 88.1562 112 88.1562C112.276 88.1562 112.5 87.9324 112.5 87.6562H111.5ZM112.5 91.4688C112.5 91.1926 112.276 90.9688 112 90.9688C111.724 90.9688 111.5 91.1926 111.5 91.4688H112.5ZM111.5 95.2812C111.5 95.5574 111.724 95.7812 112 95.7812C112.276 95.7812 112.5 95.5574 112.5 95.2812H111.5ZM112.5 99.0938C112.5 98.8176 112.276 98.5938 112 98.5938C111.724 98.5938 111.5 98.8176 111.5 99.0938H112.5ZM111.5 40V41.9062H112.5V40H111.5ZM111.5 45.7188V49.5312H112.5V45.7188H111.5ZM111.5 53.3438V57.1562H112.5V53.3438H111.5ZM111.5 60.9688V64.7812H112.5V60.9688H111.5ZM111.5 68.5938V72.4062H112.5V68.5938H111.5ZM111.5 76.2188V80.0312H112.5V76.2188H111.5ZM111.5 83.8438V87.6562H112.5V83.8438H111.5ZM111.5 91.4688V95.2812H112.5V91.4688H111.5ZM111.5 99.0938V101H112.5V99.0938H111.5Z" fill="#2370B5" fill-opacity="0.44"/>
</g>
<defs>
<filter id="filter0_d_18_2" x="24.0219" y="255.987" width="20.6628" height="24.3453" filterUnits="userSpaceOnUse" color-interpolation-filters="sRGB">
<feFlood flood-opacity="0" result="BackgroundImageFix"/>
<feColorMatrix in="SourceAlpha" type="matrix" values="0 0 0 0 0 0 0 0 0 0 0 0 0 0 0 0 0 0 127 0" result="hardAlpha"/>
<feOffset dy="4"/>
<feGaussianBlur stdDeviation="2"/>
<feComposite in2="hardAlpha" operator="out"/>
<feColorMatrix type="matrix" values="0 0 0 0 0 0 0 0 0 0 0 0 0 0 0 0 0 0 0.25 0"/>
<feBlend mode="normal" in2="BackgroundImageFix" result="effect1_dropShadow_18_2"/>
<feBlend mode="normal" in="SourceGraphic" in2="effect1_dropShadow_18_2" result="shape"/>
</filter>
<filter id="filter1_d_18_2" x="149.022" y="255.95" width="20.6628" height="24.3453" filterUnits="userSpaceOnUse" color-interpolation-filters="sRGB">
<feFlood flood-opacity="0" result="BackgroundImageFix"/>
<feColorMatrix in="SourceAlpha" type="matrix" values="0 0 0 0 0 0 0 0 0 0 0 0 0 0 0 0 0 0 127 0" result="hardAlpha"/>
<feOffset dy="4"/>
<feGaussianBlur stdDeviation="2"/>
<feComposite in2="hardAlpha" operator="out"/>
<feColorMatrix type="matrix" values="0 0 0 0 0 0 0 0 0 0 0 0 0 0 0 0 0 0 0.25 0"/>
<feBlend mode="normal" in2="BackgroundImageFix" result="effect1_dropShadow_18_2"/>
<feBlend mode="normal" in="SourceGraphic" in2="effect1_dropShadow_18_2" result="shape"/>
</filter>
<filter id="filter2_di_18_2" x="39.9995" y="107.846" width="128.663" height="157.311" filterUnits="userSpaceOnUse" color-interpolation-filters="sRGB">
<feFlood flood-opacity="0" result="BackgroundImageFix"/>
<feColorMatrix in="SourceAlpha" type="matrix" values="0 0 0 0 0 0 0 0 0 0 0 0 0 0 0 0 0 0 127 0" result="hardAlpha"/>
<feOffset dx="3" dy="3"/>
<feGaussianBlur stdDeviation="2"/>
<feComposite in2="hardAlpha" operator="out"/>
<feColorMatrix type="matrix" values="0 0 0 0 0 0 0 0 0 0 0 0 0 0 0 0 0 0 0.25 0"/>
<feBlend mode="normal" in2="BackgroundImageFix" result="effect1_dropShadow_18_2"/>
<feBlend mode="normal" in="SourceGraphic" in2="effect1_dropShadow_18_2" result="shape"/>
<feColorMatrix in="SourceAlpha" type="matrix" values="0 0 0 0 0 0 0 0 0 0 0 0 0 0 0 0 0 0 127 0" result="hardAlpha"/>
<feOffset dx="-27" dy="-16"/>
<feGaussianBlur stdDeviation="13.5"/>
<feComposite in2="hardAlpha" operator="arithmetic" k2="-1" k3="1"/>
<feColorMatrix type="matrix" values="0 0 0 0 0.820833 0 0 0 0 0.654546 0 0 0 0 0.0649827 0 0 0 0.82 0"/>
<feBlend mode="normal" in2="shape" result="effect2_innerShadow_18_2"/>
</filter>
<filter id="filter3_i_18_2" x="78.3379" y="155.303" width="37.2747" height="23.8628" filterUnits="userSpaceOnUse" color-interpolation-filters="sRGB">
<feFlood flood-opacity="0" result="BackgroundImageFix"/>
<feBlend mode="normal" in="SourceGraphic" in2="BackgroundImageFix" result="shape"/>
<feColorMatrix in="SourceAlpha" type="matrix" values="0 0 0 0 0 0 0 0 0 0 0 0 0 0 0 0 0 0 127 0" result="hardAlpha"/>
<feOffset dx="-4" dy="-6"/>
<feGaussianBlur stdDeviation="3.5"/>
<feComposite in2="hardAlpha" operator="arithmetic" k2="-1" k3="1"/>
<feColorMatrix type="matrix" values="0 0 0 0 0.75 0 0 0 0 0.349438 0 0 0 0 0.059375 0 0 0 0.85 0"/>
<feBlend mode="normal" in2="shape" result="effect1_innerShadow_18_2"/>
</filter>
<filter id="filter4_i_18_2" x="76.5176" y="239.334" width="28.4093" height="18.8838" filterUnits="userSpaceOnUse" color-interpolation-filters="sRGB">
<feFlood flood-opacity="0" result="BackgroundImageFix"/>
<feBlend mode="normal" in="SourceGraphic" in2="BackgroundImageFix" result="shape"/>
<feColorMatrix in="SourceAlpha" type="matrix" values="0 0 0 0 0 0 0 0 0 0 0 0 0 0 0 0 0 0 127 0" result="hardAlpha"/>
<feOffset dx="-4" dy="-4"/>
<feGaussianBlur stdDeviation="2"/>
<feComposite in2="hardAlpha" operator="arithmetic" k2="-1" k3="1"/>
<feColorMatrix type="matrix" values="0 0 0 0 0.75 0 0 0 0 0.349438 0 0 0 0 0.059375 0 0 0 0.85 0"/>
<feBlend mode="normal" in2="shape" result="effect1_innerShadow_18_2"/>
</filter>
<filter id="filter5_i_18_2" x="110.018" y="239.218" width="28.5535" height="18.8838" filterUnits="userSpaceOnUse" color-interpolation-filters="sRGB">
<feFlood flood-opacity="0" result="BackgroundImageFix"/>
<feBlend mode="normal" in="SourceGraphic" in2="BackgroundImageFix" result="shape"/>
<feColorMatrix in="SourceAlpha" type="matrix" values="0 0 0 0 0 0 0 0 0 0 0 0 0 0 0 0 0 0 127 0" result="hardAlpha"/>
<feOffset dx="-4" dy="-4"/>
<feGaussianBlur stdDeviation="2"/>
<feComposite in2="hardAlpha" operator="arithmetic" k2="-1" k3="1"/>
<feColorMatrix type="matrix" values="0 0 0 0 0.75 0 0 0 0 0.349438 0 0 0 0 0.059375 0 0 0 0.85 0"/>
<feBlend mode="normal" in2="shape" result="effect1_innerShadow_18_2"/>
</filter>
<filter id="filter6_i_18_2" x="57.5555" y="172.341" width="97.661" height="52.3949" filterUnits="userSpaceOnUse" color-interpolation-filters="sRGB">
<feFlood flood-opacity="0" result="BackgroundImageFix"/>
<feBlend mode="normal" in="SourceGraphic" in2="BackgroundImageFix" result="shape"/>
<feColorMatrix in="SourceAlpha" type="matrix" values="0 0 0 0 0 0 0 0 0 0 0 0 0 0 0 0 0 0 127 0" result="hardAlpha"/>
<feOffset dx="-4" dy="-9"/>
<feGaussianBlur stdDeviation="3.5"/>
<feComposite in2="hardAlpha" operator="arithmetic" k2="-1" k3="1"/>
<feColorMatrix type="matrix" values="0 0 0 0 0.820833 0 0 0 0 0.654546 0 0 0 0 0.0649827 0 0 0 0.82 0"/>
<feBlend mode="normal" in2="shape" result="effect1_innerShadow_18_2"/>
</filter>
<filter id="filter7_bd_18_2" x="5.73584" y="191.5" width="184.202" height="77" filterUnits="userSpaceOnUse" color-interpolation-filters="sRGB">
<feFlood flood-opacity="0" result="BackgroundImageFix"/>
<feGaussianBlur in="BackgroundImageFix" stdDeviation="2"/>
<feComposite in2="SourceAlpha" operator="in" result="effect1_backgroundBlur_18_2"/>
<feColorMatrix in="SourceAlpha" type="matrix" values="0 0 0 0 0 0 0 0 0 0 0 0 0 0 0 0 0 0 127 0" result="hardAlpha"/>
<feOffset dy="4"/>
<feGaussianBlur stdDeviation="2"/>
<feComposite in2="hardAlpha" operator="out"/>
<feColorMatrix type="matrix" values="0 0 0 0 0 0 0 0 0 0 0 0 0 0 0 0 0 0 0.25 0"/>
<feBlend mode="normal" in2="effect1_backgroundBlur_18_2" result="effect2_dropShadow_18_2"/>
<feBlend mode="normal" in="SourceGraphic" in2="effect2_dropShadow_18_2" result="shape"/>
</filter>
<filter id="filter8_bd_18_2" x="1.0542" y="190.5" width="194.396" height="28" filterUnits="userSpaceOnUse" color-interpolation-filters="sRGB">
<feFlood flood-opacity="0" result="BackgroundImageFix"/>
<feGaussianBlur in="BackgroundImageFix" stdDeviation="2"/>
<feComposite in2="SourceAlpha" operator="in" result="effect1_backgroundBlur_18_2"/>
<feColorMatrix in="SourceAlpha" type="matrix" values="0 0 0 0 0 0 0 0 0 0 0 0 0 0 0 0 0 0 127 0" result="hardAlpha"/>
<feOffset dy="4"/>
<feGaussianBlur stdDeviation="2"/>
<feComposite in2="hardAlpha" operator="out"/>
<feColorMatrix type="matrix" values="0 0 0 0 0 0 0 0 0 0 0 0 0 0 0 0 0 0 0.25 0"/>
<feBlend mode="normal" in2="effect1_backgroundBlur_18_2" result="effect2_dropShadow_18_2"/>
<feBlend mode="normal" in="SourceGraphic" in2="effect2_dropShadow_18_2" result="shape"/>
</filter>
<filter id="filter9_di_18_2" x="104.521" y="0.5" width="13.9625" height="37" filterUnits="userSpaceOnUse" color-interpolation-filters="sRGB">
<feFlood flood-opacity="0" result="BackgroundImageFix"/>
<feColorMatrix in="SourceAlpha" type="matrix" values="0 0 0 0 0 0 0 0 0 0 0 0 0 0 0 0 0 0 127 0" result="hardAlpha"/>
<feOffset dy="4"/>
<feGaussianBlur stdDeviation="2"/>
<feComposite in2="hardAlpha" operator="out"/>
<feColorMatrix type="matrix" values="0 0 0 0 0 0 0 0 0 0 0 0 0 0 0 0 0 0 0.25 0"/>
<feBlend mode="normal" in2="BackgroundImageFix" result="effect1_dropShadow_18_2"/>
<feBlend mode="normal" in="SourceGraphic" in2="effect1_dropShadow_18_2" result="shape"/>
<feColorMatrix in="SourceAlpha" type="matrix" values="0 0 0 0 0 0 0 0 0 0 0 0 0 0 0 0 0 0 127 0" result="hardAlpha"/>
<feOffset dy="4"/>
<feGaussianBlur stdDeviation="2"/>
<feComposite in2="hardAlpha" operator="arithmetic" k2="-1" k3="1"/>
<feColorMatrix type="matrix" values="0 0 0 0 1 0 0 0 0 1 0 0 0 0 1 0 0 0 1 0"/>
<feBlend mode="normal" in2="shape" result="effect2_innerShadow_18_2"/>
</filter>
<filter id="filter10_i_18_2" x="18" y="172" width="17" height="23" filterUnits="userSpaceOnUse" color-interpolation-filters="sRGB">
<feFlood flood-opacity="0" result="BackgroundImageFix"/>
<feBlend mode="normal" in="SourceGraphic" in2="BackgroundImageFix" result="shape"/>
<feColorMatrix in="SourceAlpha" type="matrix" values="0 0 0 0 0 0 0 0 0 0 0 0 0 0 0 0 0 0 127 0" result="hardAlpha"/>
<feOffset dx="-4" dy="-4"/>
<feGaussianBlur stdDeviation="2"/>
<feComposite in2="hardAlpha" operator="arithmetic" k2="-1" k3="1"/>
<feColorMatrix type="matrix" values="0 0 0 0 0.545098 0 0 0 0 0.85098 0 0 0 0 0.819608 0 0 0 0.5 0"/>
<feBlend mode="normal" in2="shape" result="effect1_innerShadow_18_2"/>
</filter>
<filter id="filter11_di_18_2" x="66.6351" y="24.5" width="90.2756" height="24" filterUnits="userSpaceOnUse" color-interpolation-filters="sRGB">
<feFlood flood-opacity="0" result="BackgroundImageFix"/>
<feColorMatrix in="SourceAlpha" type="matrix" values="0 0 0 0 0 0 0 0 0 0 0 0 0 0 0 0 0 0 127 0" result="hardAlpha"/>
<feOffset dy="4"/>
<feGaussianBlur stdDeviation="2"/>
<feComposite in2="hardAlpha" operator="out"/>
<feColorMatrix type="matrix" values="0 0 0 0 0 0 0 0 0 0 0 0 0 0 0 0 0 0 0.25 0"/>
<feBlend mode="normal" in2="BackgroundImageFix" result="effect1_dropShadow_18_2"/>
<feBlend mode="normal" in="SourceGraphic" in2="effect1_dropShadow_18_2" result="shape"/>
<feColorMatrix in="SourceAlpha" type="matrix" values="0 0 0 0 0 0 0 0 0 0 0 0 0 0 0 0 0 0 127 0" result="hardAlpha"/>
<feOffset dy="4"/>
<feGaussianBlur stdDeviation="2"/>
<feComposite in2="hardAlpha" operator="arithmetic" k2="-1" k3="1"/>
<feColorMatrix type="matrix" values="0 0 0 0 1 0 0 0 0 1 0 0 0 0 1 0 0 0 1 0"/>
<feBlend mode="normal" in2="shape" result="effect2_innerShadow_18_2"/>
</filter>
<filter id="filter12_f_18_2" x="137.5" y="38.5" width="3" height="94.5" filterUnits="userSpaceOnUse" color-interpolation-filters="sRGB">
<feFlood flood-opacity="0" result="BackgroundImageFix"/>
<feBlend mode="normal" in="SourceGraphic" in2="BackgroundImageFix" result="shape"/>
<feGaussianBlur stdDeviation="0.5" result="effect1_foregroundBlur_18_2"/>
</filter>
<filter id="filter13_f_18_2" x="89.5" y="38.5" width="3" height="86.5" filterUnits="userSpaceOnUse" color-interpolation-filters="sRGB">
<feFlood flood-opacity="0" result="BackgroundImageFix"/>
<feBlend mode="normal" in="SourceGraphic" in2="BackgroundImageFix" result="shape"/>
<feGaussianBlur stdDeviation="0.5" result="effect1_foregroundBlur_18_2"/>
</filter>
<filter id="filter14_f_18_2" x="82.5" y="39" width="3" height="93.5" filterUnits="userSpaceOnUse" color-interpolation-filters="sRGB">
<feFlood flood-opacity="0" result="BackgroundImageFix"/>
<feBlend mode="normal" in="SourceGraphic" in2="BackgroundImageFix" result="shape"/>
<feGaussianBlur stdDeviation="0.5" result="effect1_foregroundBlur_18_2"/>
</filter>
<filter id="filter15_f_18_2" x="103.5" y="38.5" width="3" height="83.5" filterUnits="userSpaceOnUse" color-interpolation-filters="sRGB">
<feFlood flood-opacity="0" result="BackgroundImageFix"/>
<feBlend mode="normal" in="SourceGraphic" in2="BackgroundImageFix" result="shape"/>
<feGaussianBlur stdDeviation="0.5" result="effect1_foregroundBlur_18_2"/>
</filter>
<filter id="filter16_f_18_2" x="96.5" y="39" width="3" height="83.5" filterUnits="userSpaceOnUse" color-interpolation-filters="sRGB">
<feFlood flood-opacity="0" result="BackgroundImageFix"/>
<feBlend mode="normal" in="SourceGraphic" in2="BackgroundImageFix" result="shape"/>
<feGaussianBlur stdDeviation="0.5" result="effect1_foregroundBlur_18_2"/>
</filter>
<filter id="filter17_f_18_2" x="117.5" y="38.5" width="3" height="85.5" filterUnits="userSpaceOnUse" color-interpolation-filters="sRGB">
<feFlood flood-opacity="0" result="BackgroundImageFix"/>
<feBlend mode="normal" in="SourceGraphic" in2="BackgroundImageFix" result="shape"/>
<feGaussianBlur stdDeviation="0.5" result="effect1_foregroundBlur_18_2"/>
</filter>
<filter id="filter18_f_18_2" x="124.5" y="39" width="3" height="86.5" filterUnits="userSpaceOnUse" color-interpolation-filters="sRGB">
<feFlood flood-opacity="0" result="BackgroundImageFix"/>
<feBlend mode="normal" in="SourceGraphic" in2="BackgroundImageFix" result="shape"/>
<feGaussianBlur stdDeviation="0.5" result="effect1_foregroundBlur_18_2"/>
</filter>
<filter id="filter19_f_18_2" x="131.5" y="39" width="3" height="88.5" filterUnits="userSpaceOnUse" color-interpolation-filters="sRGB">
<feFlood flood-opacity="0" result="BackgroundImageFix"/>
<feBlend mode="normal" in="SourceGraphic" in2="BackgroundImageFix" result="shape"/>
<feGaussianBlur stdDeviation="0.5" result="effect1_foregroundBlur_18_2"/>
</filter>
<filter id="filter20_f_18_2" x="110.5" y="38.5" width="3" height="63.5" filterUnits="userSpaceOnUse" color-interpolation-filters="sRGB">
<feFlood flood-opacity="0" result="BackgroundImageFix"/>
<feBlend mode="normal" in="SourceGraphic" in2="BackgroundImageFix" result="shape"/>
<feGaussianBlur stdDeviation="0.5" result="effect1_foregroundBlur_18_2"/>
</filter>
</defs>
</svg>
